# Blender v2.79 (sub 0) OBJ File: ''
# www.blender.org
mtllib axis.mtl
g Cube
v 0.384060 -0.097846 -0.097846
v 0.384060 -0.097846 0.097846
v -0.384060 -0.384060 0.384059
v -0.086246 -0.086246 -0.384060
v 0.095830 0.384060 -0.095829
v 0.095829 0.384060 0.095830
v -0.095830 0.384060 0.095830
v -0.095830 0.384060 -0.095829
v 0.384060 0.097846 -0.097846
v 0.384059 0.097846 0.097846
v -0.086246 0.086247 -0.384060
v -0.384060 0.384060 0.384059
v 0.086247 -0.086246 -0.384060
v 0.384060 -0.384060 0.384060
v 0.086247 0.086247 -0.384059
v 0.384059 0.384060 0.384060
v 0.384060 -0.384060 -0.384060
v -0.384059 -0.384060 -0.384060
v 0.384060 0.384060 -0.384059
v -0.384060 0.384060 -0.384060
v 0.095830 4.578830 -0.095829
v 0.095829 4.578830 0.095830
v -0.095830 4.578830 -0.095829
v -0.095830 4.578830 0.095830
v 4.578830 -0.097846 -0.097845
v 4.578830 -0.097846 0.097847
v 4.578830 0.097846 -0.097845
v 4.578829 0.097846 0.097847
v 0.086247 -0.086246 -4.578830
v -0.086245 -0.086246 -4.578830
v 0.086247 0.086247 -4.578830
v -0.086246 0.086247 -4.578830
v 0.249120 4.578830 -0.249119
v 0.249119 4.578830 0.249120
v -0.249120 4.578830 -0.249120
v -0.249120 4.578830 0.249120
v 4.578830 -0.249120 -0.249118
v 4.578830 -0.249120 0.249121
v 4.578830 0.249120 -0.249118
v 4.578829 0.249120 0.249121
v 0.249121 -0.249119 -4.578830
v -0.249118 -0.249119 -4.578830
v 0.249121 0.249121 -4.578830
v -0.249118 0.249120 -4.578830
v 0.032843 5.077133 -0.032843
v 0.032843 5.077133 0.032843
v -0.032843 5.077133 -0.032843
v -0.032843 5.077133 0.032843
v 5.077133 -0.032843 -0.032842
v 5.077133 -0.032843 0.032845
v 5.077133 0.032843 -0.032842
v 5.077133 0.032843 0.032845
v 0.032844 -0.032842 -5.077133
v -0.032842 -0.032842 -5.077133
v 0.032844 0.032844 -5.077133
v -0.032842 0.032844 -5.077133
vn 0.0000 -1.0000 -0.0000
vn -0.0000 -0.0000 1.0000
vn -1.0000 -0.0000 -0.0000
vn 0.0000 1.0000 0.0000
vn 1.0000 0.0000 0.0000
vn 0.0000 0.0000 -1.0000
vn 0.3981 0.0000 -0.9173
vn 0.3981 0.0000 0.9173
vn 0.3981 0.9173 0.0000
vn 0.3981 -0.9173 0.0000
vn 0.9173 -0.0000 -0.3981
vn -0.9173 -0.0000 -0.3981
vn -0.0000 0.9173 -0.3981
vn 0.0000 -0.9173 -0.3981
vn -0.0000 0.3981 0.9173
vn -0.9173 0.3981 -0.0000
vn 0.9173 0.3981 0.0000
vn 0.0000 0.3981 -0.9173
usemtl Blanco
s off
f 17//1 14//1 3//1 18//1
f 14//2 16//2 12//2 3//2
f 3//3 12//3 20//3 18//3
f 5//4 6//4 16//4 19//4
f 8//4 5//4 19//4 20//4
f 6//4 7//4 12//4 16//4
f 7//4 8//4 20//4 12//4
f 1//5 2//5 14//5 17//5
f 9//5 1//5 17//5 19//5
f 2//5 10//5 16//5 14//5
f 10//5 9//5 19//5 16//5
f 4//6 13//6 17//6 18//6
f 13//6 15//6 19//6 17//6
f 11//6 4//6 18//6 20//6
f 15//6 11//6 20//6 19//6
usemtl Rojo
f 1//6 9//6 27//6 25//6
f 28//3 26//3 38//3 40//3
f 10//2 2//2 26//2 28//2
f 9//4 10//4 28//4 27//4
f 2//1 1//1 25//1 26//1
f 37//7 39//7 51//7 49//7
f 27//3 28//3 40//3 39//3
f 26//3 25//3 37//3 38//3
f 25//3 27//3 39//3 37//3
f 49//5 51//5 52//5 50//5
f 40//8 38//8 50//8 52//8
f 39//9 40//9 52//9 51//9
f 38//10 37//10 49//10 50//10
usemtl Azul
f 11//4 15//4 31//4 32//4
f 31//2 29//2 41//2 43//2
f 13//1 4//1 30//1 29//1
f 15//5 13//5 29//5 31//5
f 4//3 11//3 32//3 30//3
f 43//11 41//11 53//11 55//11
f 30//2 32//2 44//2 42//2
f 32//2 31//2 43//2 44//2
f 29//2 30//2 42//2 41//2
f 55//6 53//6 54//6 56//6
f 42//12 44//12 56//12 54//12
f 44//13 43//13 55//13 56//13
f 41//14 42//14 54//14 53//14
usemtl Verde
f 7//2 6//2 22//2 24//2
f 24//1 22//1 34//1 36//1
f 8//3 7//3 24//3 23//3
f 6//5 5//5 21//5 22//5
f 5//6 8//6 23//6 21//6
f 36//15 34//15 46//15 48//15
f 23//1 24//1 36//1 35//1
f 22//1 21//1 33//1 34//1
f 21//1 23//1 35//1 33//1
f 45//4 47//4 48//4 46//4
f 35//16 36//16 48//16 47//16
f 34//17 33//17 45//17 46//17
f 33//18 35//18 47//18 45//18
